<mxfile host="app.diagrams.net" agent="Mozilla/5.0 (Windows NT 10.0; Win64; x64) AppleWebKit/537.36 (KHTML, like Gecko) Chrome/139.0.0.0 Safari/537.36" version="28.2.3" pages="2">
  <diagram name="Page-1" id="4jCqsVta9YBGJokjuBqW">
    <mxGraphModel dx="1042" dy="1731" grid="1" gridSize="10" guides="1" tooltips="1" connect="1" arrows="1" fold="1" page="1" pageScale="1" pageWidth="827" pageHeight="1169" math="0" shadow="0">
      <root>
        <mxCell id="0" />
        <mxCell id="1" parent="0" />
        <mxCell id="9XlFjqnNwo3ZBEB4k6mD-11" style="edgeStyle=orthogonalEdgeStyle;rounded=0;orthogonalLoop=1;jettySize=auto;html=1;exitX=0.5;exitY=1;exitDx=0;exitDy=0;entryX=0.5;entryY=0;entryDx=0;entryDy=0;" edge="1" parent="1" source="9XlFjqnNwo3ZBEB4k6mD-2" target="9XlFjqnNwo3ZBEB4k6mD-4">
          <mxGeometry relative="1" as="geometry" />
        </mxCell>
        <mxCell id="9XlFjqnNwo3ZBEB4k6mD-2" value="&lt;font style=&quot;font-size: 22px;&quot;&gt;Develop&lt;/font&gt;" style="ellipse;whiteSpace=wrap;html=1;" vertex="1" parent="1">
          <mxGeometry x="350" y="-10" width="120" height="80" as="geometry" />
        </mxCell>
        <mxCell id="9XlFjqnNwo3ZBEB4k6mD-13" style="edgeStyle=orthogonalEdgeStyle;rounded=0;orthogonalLoop=1;jettySize=auto;html=1;exitX=0.5;exitY=1;exitDx=0;exitDy=0;entryX=0.5;entryY=0;entryDx=0;entryDy=0;" edge="1" parent="1" source="9XlFjqnNwo3ZBEB4k6mD-3" target="9XlFjqnNwo3ZBEB4k6mD-5">
          <mxGeometry relative="1" as="geometry" />
        </mxCell>
        <mxCell id="9XlFjqnNwo3ZBEB4k6mD-3" value="&lt;font style=&quot;font-size: 29px;&quot;&gt;Test&lt;/font&gt;" style="whiteSpace=wrap;html=1;aspect=fixed;" vertex="1" parent="1">
          <mxGeometry x="370" y="230" width="80" height="80" as="geometry" />
        </mxCell>
        <mxCell id="9XlFjqnNwo3ZBEB4k6mD-12" style="edgeStyle=orthogonalEdgeStyle;rounded=0;orthogonalLoop=1;jettySize=auto;html=1;exitX=0.5;exitY=1;exitDx=0;exitDy=0;entryX=0.5;entryY=0;entryDx=0;entryDy=0;" edge="1" parent="1" source="9XlFjqnNwo3ZBEB4k6mD-4" target="9XlFjqnNwo3ZBEB4k6mD-3">
          <mxGeometry relative="1" as="geometry" />
        </mxCell>
        <mxCell id="9XlFjqnNwo3ZBEB4k6mD-4" value="&lt;font style=&quot;font-size: 19px;&quot;&gt;Build&lt;/font&gt;" style="rhombus;whiteSpace=wrap;html=1;" vertex="1" parent="1">
          <mxGeometry x="370" y="110" width="80" height="80" as="geometry" />
        </mxCell>
        <mxCell id="9XlFjqnNwo3ZBEB4k6mD-14" style="edgeStyle=orthogonalEdgeStyle;rounded=0;orthogonalLoop=1;jettySize=auto;html=1;exitX=0.5;exitY=1;exitDx=0;exitDy=0;entryX=0.5;entryY=0;entryDx=0;entryDy=0;" edge="1" parent="1" source="9XlFjqnNwo3ZBEB4k6mD-5" target="9XlFjqnNwo3ZBEB4k6mD-7">
          <mxGeometry relative="1" as="geometry" />
        </mxCell>
        <mxCell id="9XlFjqnNwo3ZBEB4k6mD-5" value="&lt;font style=&quot;font-size: 21px;&quot;&gt;Release&lt;/font&gt;" style="shape=hexagon;perimeter=hexagonPerimeter2;whiteSpace=wrap;html=1;fixedSize=1;" vertex="1" parent="1">
          <mxGeometry x="350" y="350" width="120" height="80" as="geometry" />
        </mxCell>
        <mxCell id="9XlFjqnNwo3ZBEB4k6mD-15" style="edgeStyle=orthogonalEdgeStyle;rounded=0;orthogonalLoop=1;jettySize=auto;html=1;exitX=0.5;exitY=1;exitDx=0;exitDy=0;entryX=0.5;entryY=0;entryDx=0;entryDy=0;" edge="1" parent="1" source="9XlFjqnNwo3ZBEB4k6mD-7" target="9XlFjqnNwo3ZBEB4k6mD-8">
          <mxGeometry relative="1" as="geometry" />
        </mxCell>
        <mxCell id="9XlFjqnNwo3ZBEB4k6mD-7" value="&lt;font style=&quot;font-size: 21px;&quot;&gt;Deploy&lt;/font&gt;" style="shape=trapezoid;perimeter=trapezoidPerimeter;whiteSpace=wrap;html=1;fixedSize=1;" vertex="1" parent="1">
          <mxGeometry x="350" y="470" width="120" height="60" as="geometry" />
        </mxCell>
        <mxCell id="9XlFjqnNwo3ZBEB4k6mD-16" style="edgeStyle=orthogonalEdgeStyle;rounded=0;orthogonalLoop=1;jettySize=auto;html=1;exitX=0.5;exitY=1;exitDx=0;exitDy=0;entryX=0.5;entryY=0;entryDx=0;entryDy=0;" edge="1" parent="1" source="9XlFjqnNwo3ZBEB4k6mD-8" target="9XlFjqnNwo3ZBEB4k6mD-9">
          <mxGeometry relative="1" as="geometry" />
        </mxCell>
        <mxCell id="9XlFjqnNwo3ZBEB4k6mD-8" value="&lt;font style=&quot;font-size: 15px;&quot;&gt;Operator-Person/&lt;/font&gt;&lt;div&gt;&lt;font style=&quot;font-size: 15px;&quot;&gt;Actor&lt;/font&gt;&lt;/div&gt;" style="rounded=1;whiteSpace=wrap;html=1;" vertex="1" parent="1">
          <mxGeometry x="350" y="560" width="120" height="60" as="geometry" />
        </mxCell>
        <mxCell id="9XlFjqnNwo3ZBEB4k6mD-9" value="&lt;font style=&quot;font-size: 18px;&quot;&gt;Monitor&lt;/font&gt;" style="ellipse;whiteSpace=wrap;html=1;aspect=fixed;" vertex="1" parent="1">
          <mxGeometry x="370" y="660" width="80" height="80" as="geometry" />
        </mxCell>
        <mxCell id="9XlFjqnNwo3ZBEB4k6mD-18" style="edgeStyle=orthogonalEdgeStyle;rounded=0;orthogonalLoop=1;jettySize=auto;html=1;entryX=0.5;entryY=0;entryDx=0;entryDy=0;" edge="1" parent="1" source="9XlFjqnNwo3ZBEB4k6mD-17" target="9XlFjqnNwo3ZBEB4k6mD-2">
          <mxGeometry relative="1" as="geometry" />
        </mxCell>
        <mxCell id="9XlFjqnNwo3ZBEB4k6mD-17" value="&lt;font style=&quot;font-size: 24px;&quot;&gt;Plan&lt;/font&gt;" style="rounded=0;whiteSpace=wrap;html=1;" vertex="1" parent="1">
          <mxGeometry x="350" y="-110" width="120" height="60" as="geometry" />
        </mxCell>
      </root>
    </mxGraphModel>
  </diagram>
  <diagram id="KlSxyrDyHxfi4mCaNM5o" name="Page-2">
    <mxGraphModel dx="1097" dy="592" grid="1" gridSize="10" guides="1" tooltips="1" connect="1" arrows="1" fold="1" page="1" pageScale="1" pageWidth="827" pageHeight="1169" math="0" shadow="0">
      <root>
        <mxCell id="0" />
        <mxCell id="1" parent="0" />
        <mxCell id="pCTAA-tiXrnRzbPArf5r-23" style="edgeStyle=orthogonalEdgeStyle;rounded=0;orthogonalLoop=1;jettySize=auto;html=1;entryX=0.5;entryY=0;entryDx=0;entryDy=0;" edge="1" parent="1" source="pCTAA-tiXrnRzbPArf5r-24" target="pCTAA-tiXrnRzbPArf5r-27">
          <mxGeometry relative="1" as="geometry" />
        </mxCell>
        <mxCell id="pCTAA-tiXrnRzbPArf5r-24" value="&lt;font style=&quot;font-size: 20px;&quot;&gt;VJ Eats&lt;/font&gt;" style="rounded=0;whiteSpace=wrap;html=1;" vertex="1" parent="1">
          <mxGeometry x="350" y="50" width="120" height="60" as="geometry" />
        </mxCell>
        <mxCell id="pCTAA-tiXrnRzbPArf5r-25" value="" style="edgeStyle=orthogonalEdgeStyle;rounded=0;orthogonalLoop=1;jettySize=auto;html=1;" edge="1" parent="1" source="pCTAA-tiXrnRzbPArf5r-27" target="pCTAA-tiXrnRzbPArf5r-30">
          <mxGeometry relative="1" as="geometry" />
        </mxCell>
        <mxCell id="pCTAA-tiXrnRzbPArf5r-26" value="" style="edgeStyle=orthogonalEdgeStyle;rounded=0;orthogonalLoop=1;jettySize=auto;html=1;" edge="1" parent="1" source="pCTAA-tiXrnRzbPArf5r-27" target="pCTAA-tiXrnRzbPArf5r-32">
          <mxGeometry relative="1" as="geometry" />
        </mxCell>
        <mxCell id="pCTAA-tiXrnRzbPArf5r-27" value="Designing UI/UX" style="ellipse;whiteSpace=wrap;html=1;aspect=fixed;" vertex="1" parent="1">
          <mxGeometry x="370" y="170" width="80" height="80" as="geometry" />
        </mxCell>
        <mxCell id="pCTAA-tiXrnRzbPArf5r-28" style="edgeStyle=orthogonalEdgeStyle;rounded=0;orthogonalLoop=1;jettySize=auto;html=1;exitX=0.5;exitY=1;exitDx=0;exitDy=0;entryX=0.5;entryY=0;entryDx=0;entryDy=0;entryPerimeter=0;" edge="1" parent="1">
          <mxGeometry relative="1" as="geometry">
            <mxPoint x="410" y="600" as="sourcePoint" />
            <mxPoint x="410" y="640" as="targetPoint" />
          </mxGeometry>
        </mxCell>
        <mxCell id="pCTAA-tiXrnRzbPArf5r-29" style="edgeStyle=orthogonalEdgeStyle;rounded=0;orthogonalLoop=1;jettySize=auto;html=1;exitX=0.5;exitY=1;exitDx=0;exitDy=0;entryX=0;entryY=0.5;entryDx=0;entryDy=0;" edge="1" parent="1" source="pCTAA-tiXrnRzbPArf5r-30" target="pCTAA-tiXrnRzbPArf5r-34">
          <mxGeometry relative="1" as="geometry" />
        </mxCell>
        <mxCell id="pCTAA-tiXrnRzbPArf5r-30" value="Customer sign up" style="ellipse;whiteSpace=wrap;html=1;" vertex="1" parent="1">
          <mxGeometry x="210" y="170" width="80" height="80" as="geometry" />
        </mxCell>
        <mxCell id="pCTAA-tiXrnRzbPArf5r-31" style="edgeStyle=orthogonalEdgeStyle;rounded=0;orthogonalLoop=1;jettySize=auto;html=1;exitX=0.5;exitY=1;exitDx=0;exitDy=0;entryX=1;entryY=0.5;entryDx=0;entryDy=0;" edge="1" parent="1" source="pCTAA-tiXrnRzbPArf5r-32" target="pCTAA-tiXrnRzbPArf5r-34">
          <mxGeometry relative="1" as="geometry" />
        </mxCell>
        <mxCell id="pCTAA-tiXrnRzbPArf5r-32" value="Listing Restaurants and their cusines" style="ellipse;whiteSpace=wrap;html=1;" vertex="1" parent="1">
          <mxGeometry x="530" y="170" width="80" height="80" as="geometry" />
        </mxCell>
        <mxCell id="pCTAA-tiXrnRzbPArf5r-33" style="edgeStyle=orthogonalEdgeStyle;rounded=0;orthogonalLoop=1;jettySize=auto;html=1;exitX=0.5;exitY=1;exitDx=0;exitDy=0;entryX=0.5;entryY=0;entryDx=0;entryDy=0;" edge="1" parent="1" source="pCTAA-tiXrnRzbPArf5r-34" target="pCTAA-tiXrnRzbPArf5r-36">
          <mxGeometry relative="1" as="geometry" />
        </mxCell>
        <mxCell id="pCTAA-tiXrnRzbPArf5r-34" value="Checkout Page &amp;amp; RTS" style="ellipse;whiteSpace=wrap;html=1;aspect=fixed;" vertex="1" parent="1">
          <mxGeometry x="370" y="280" width="80" height="80" as="geometry" />
        </mxCell>
        <mxCell id="pCTAA-tiXrnRzbPArf5r-35" style="edgeStyle=orthogonalEdgeStyle;rounded=0;orthogonalLoop=1;jettySize=auto;html=1;exitX=0.5;exitY=1;exitDx=0;exitDy=0;entryX=0.5;entryY=0;entryDx=0;entryDy=0;" edge="1" parent="1" source="pCTAA-tiXrnRzbPArf5r-36" target="pCTAA-tiXrnRzbPArf5r-37">
          <mxGeometry relative="1" as="geometry" />
        </mxCell>
        <mxCell id="pCTAA-tiXrnRzbPArf5r-36" value="Compiling to Apk" style="ellipse;whiteSpace=wrap;html=1;" vertex="1" parent="1">
          <mxGeometry x="350" y="420" width="120" height="80" as="geometry" />
        </mxCell>
        <mxCell id="pCTAA-tiXrnRzbPArf5r-37" value="No Bugs Found" style="rhombus;whiteSpace=wrap;html=1;" vertex="1" parent="1">
          <mxGeometry x="370" y="530" width="80" height="80" as="geometry" />
        </mxCell>
        <mxCell id="pCTAA-tiXrnRzbPArf5r-38" style="edgeStyle=orthogonalEdgeStyle;rounded=0;orthogonalLoop=1;jettySize=auto;html=1;exitX=0.5;exitY=1;exitDx=0;exitDy=0;entryX=0.5;entryY=0;entryDx=0;entryDy=0;" edge="1" parent="1" source="pCTAA-tiXrnRzbPArf5r-39">
          <mxGeometry relative="1" as="geometry">
            <mxPoint x="410" y="750" as="targetPoint" />
          </mxGeometry>
        </mxCell>
        <mxCell id="pCTAA-tiXrnRzbPArf5r-39" value="Writing Permissions for Deployment" style="shape=parallelogram;perimeter=parallelogramPerimeter;whiteSpace=wrap;html=1;fixedSize=1;" vertex="1" parent="1">
          <mxGeometry x="335" y="640" width="150" height="60" as="geometry" />
        </mxCell>
        <mxCell id="pCTAA-tiXrnRzbPArf5r-40" value="Pushed to Appstore" style="shape=cylinder3;whiteSpace=wrap;html=1;boundedLbl=1;backgroundOutline=1;size=15;" vertex="1" parent="1">
          <mxGeometry x="380" y="750" width="60" height="80" as="geometry" />
        </mxCell>
        <mxCell id="pCTAA-tiXrnRzbPArf5r-41" style="edgeStyle=orthogonalEdgeStyle;rounded=0;orthogonalLoop=1;jettySize=auto;html=1;" edge="1" parent="1" source="pCTAA-tiXrnRzbPArf5r-42" target="pCTAA-tiXrnRzbPArf5r-44">
          <mxGeometry relative="1" as="geometry" />
        </mxCell>
        <mxCell id="pCTAA-tiXrnRzbPArf5r-42" value="Customer Using Application" style="shape=umlActor;verticalLabelPosition=bottom;verticalAlign=top;html=1;outlineConnect=0;" vertex="1" parent="1">
          <mxGeometry x="370" y="860" width="80" height="100" as="geometry" />
        </mxCell>
        <mxCell id="pCTAA-tiXrnRzbPArf5r-43" style="edgeStyle=orthogonalEdgeStyle;rounded=0;orthogonalLoop=1;jettySize=auto;html=1;exitX=0.5;exitY=1;exitDx=0;exitDy=0;exitPerimeter=0;entryX=0.5;entryY=0;entryDx=0;entryDy=0;entryPerimeter=0;" edge="1" parent="1" source="pCTAA-tiXrnRzbPArf5r-40" target="pCTAA-tiXrnRzbPArf5r-42">
          <mxGeometry relative="1" as="geometry" />
        </mxCell>
        <mxCell id="pCTAA-tiXrnRzbPArf5r-44" value="Recieved No Feedback" style="ellipse;shape=cloud;whiteSpace=wrap;html=1;" vertex="1" parent="1">
          <mxGeometry x="350" y="980" width="120" height="80" as="geometry" />
        </mxCell>
      </root>
    </mxGraphModel>
  </diagram>
</mxfile>
